<svg width="28" height="29" viewBox="0 0 28 29" fill="none" xmlns="http://www.w3.org/2000/svg">
<path d="M13.0505 25.5934C13.1172 25.9045 13.245 26.249 13.4339 26.6268C13.6227 27.0045 13.8172 27.3268 14.0172 27.5934H2.61719C2.08385 27.5934 1.61719 27.3934 1.21719 26.9934C0.817187 26.5934 0.617188 26.1268 0.617188 25.5934V2.89343C0.617188 2.3601 0.817187 1.89343 1.21719 1.49343C1.61719 1.09343 2.08385 0.893433 2.61719 0.893433H19.9505C20.4839 0.893433 20.9505 1.09343 21.3505 1.49343C21.7505 1.89343 21.9505 2.3601 21.9505 2.89343V14.1934C21.6505 14.149 21.3172 14.1268 20.9505 14.1268C20.5839 14.1268 20.2505 14.149 19.9505 14.1934V2.89343H12.0172V12.1601L8.81719 10.1934L5.61719 12.1601V2.89343H2.61719V25.5934H13.0505ZM20.8839 28.8934C19.0839 28.8934 17.5672 28.2768 16.3339 27.0434C15.1005 25.8101 14.4839 24.2934 14.4839 22.4934C14.4839 20.6934 15.1005 19.1768 16.3339 17.9434C17.5672 16.7101 19.0839 16.0934 20.8839 16.0934C22.6839 16.0934 24.2005 16.7101 25.4339 17.9434C26.6672 19.1768 27.2839 20.6934 27.2839 22.4934C27.2839 24.2934 26.6672 25.8101 25.4339 27.0434C24.2005 28.2768 22.6839 28.8934 20.8839 28.8934ZM19.2505 25.5601L24.0172 22.4934L19.2505 19.4268V25.5601ZM13.0505 2.89343H2.61719H19.9505H12.5172H13.0505Z" fill="#D54B7D"/>
</svg>
