<svg width="29" height="28" viewBox="0 0 29 28" fill="none" xmlns="http://www.w3.org/2000/svg">
<path d="M13.8983 0.689333C13.4921 0.876833 13.0858 1.33308 12.9546 1.75808L12.8483 2.08308L11.9671 2.12058C11.4858 2.14558 9.42332 2.16433 7.39207 2.16433C3.92957 2.16433 3.65457 2.17058 3.07957 2.28933C1.94832 2.52058 1.37957 2.92058 0.96707 3.75183C0.50457 4.68308 0.52332 4.41433 0.54207 11.7268C0.55457 18.4143 0.58582 19.3518 0.81082 20.2893C1.07957 21.4268 1.73582 22.3456 2.59207 22.7768C3.30457 23.1331 3.77332 23.1893 6.11707 23.1893C7.26707 23.1893 11.3046 23.1893 15.0858 23.1893C18.8671 23.1893 22.7483 23.1893 23.7108 23.1893C25.3046 23.1893 25.5108 23.1768 26.0171 23.0518C27.5358 22.6768 28.2483 21.9643 28.4546 20.6331C28.5171 20.2393 28.5546 19.1206 28.5796 16.9143C28.5983 15.1768 28.6483 11.6456 28.6858 9.06433C28.7358 5.67683 28.7358 4.27058 28.6858 4.00183C28.5358 3.19558 28.0483 2.55183 27.3171 2.20808L26.8983 2.00808L21.6108 2.02058L16.3233 2.03933L16.2546 1.80183C16.0983 1.28308 15.6171 0.776833 15.1233 0.608082C14.7671 0.489332 14.2483 0.520582 13.8983 0.689333ZM26.9671 2.84558C27.3671 3.02683 27.6483 3.31433 27.8358 3.73933L28.0108 4.13308L27.9671 8.38308C27.8233 21.1956 27.8483 20.1581 27.6921 20.5018C27.4858 20.9643 27.2983 21.1768 26.9233 21.3831L26.5858 21.5643L24.3358 21.5518C23.0983 21.5456 21.1733 21.5268 20.0546 21.5081C18.9358 21.4893 14.9046 21.4331 11.0858 21.3831C7.27332 21.3331 4.04832 21.2706 3.92957 21.2518C3.37957 21.1581 2.80457 20.6331 2.64832 20.0768C2.57957 19.8268 2.54832 18.7018 2.48582 14.6956C2.44207 11.9081 2.41082 8.38308 2.40457 6.85183C2.39832 4.11433 2.39832 4.06433 2.53582 3.82058C2.71707 3.47683 3.03582 3.16433 3.34207 3.03308C3.57957 2.92683 3.92957 2.91433 8.18582 2.87683C10.7108 2.85808 13.8733 2.82058 15.2108 2.79558C16.5546 2.77058 19.6858 2.74558 22.1796 2.73933C26.4608 2.73308 26.7233 2.73308 26.9671 2.84558Z" fill="#324D90"/>
<path d="M11.2419 8.00806C11.1669 8.09556 11.1731 8.33306 11.2606 9.68306C11.3919 11.5768 11.4856 13.8518 11.4919 15.1331C11.4919 16.1518 11.5169 16.2268 11.8106 16.2268C12.0481 16.2268 13.3169 15.6893 14.5231 15.0706C15.7231 14.4643 16.7669 13.8206 18.0106 12.9331C18.9294 12.2706 19.0481 12.1393 18.9669 11.8706C18.9294 11.7581 17.5044 10.8393 16.2731 10.1331C14.8169 9.29556 12.0294 7.99556 11.5544 7.93306C11.3919 7.90806 11.3044 7.93306 11.2419 8.00806Z" fill="#324D90"/>
<path d="M17.5861 23.8143C17.3611 23.9768 17.4486 24.2143 18.2236 25.4893C18.6361 26.1706 19.0111 26.7706 19.0548 26.8206C19.2361 27.0393 19.6798 26.8706 19.6798 26.5893C19.6798 26.4393 18.2298 24.0018 18.0423 23.8331C17.8923 23.7018 17.7423 23.6956 17.5861 23.8143Z" fill="#324D90"/>
<path d="M9.93594 24.8893C9.23594 25.6206 9.11719 25.7706 9.11719 25.9393C9.11719 26.1831 9.21094 26.2893 9.43594 26.2893C9.57344 26.2893 9.72344 26.1706 10.1359 25.7393C10.9234 24.9268 11.3047 24.4831 11.3047 24.3956C11.3047 24.2268 11.1109 24.0393 10.9297 24.0393C10.7859 24.0393 10.6109 24.1893 9.93594 24.8893Z" fill="#324D90"/>
<path d="M13.9731 24.1269C13.9044 24.1956 13.8794 24.5831 13.8481 25.9519C13.8106 27.5144 13.8169 27.6956 13.9106 27.8019C14.0419 27.9456 14.3169 27.9456 14.4481 27.8019C14.5294 27.7144 14.5481 27.4331 14.5606 25.9706C14.5856 24.0894 14.5731 24.0394 14.2356 24.0394C14.1419 24.0394 14.0231 24.0769 13.9731 24.1269Z" fill="#324D90"/>
</svg>
